<!DOCTYPE svg PUBLIC "-//W3C//DTD SVG 1.1//EN" "http://www.w3.org/Graphics/SVG/1.1/DTD/svg11.dtd">
<svg xmlns="http://www.w3.org/2000/svg" xmlns:xlink="http://www.w3.org/1999/xlink" width="261px" height="221px" version="1.1"><defs/><g transform="translate(0.5,0.5)"><path d="M 20 70 L 75.5 14.5" fill="none" stroke="#000000" stroke-opacity="0.2" stroke-miterlimit="10" pointer-events="none"/><path d="M 79.21 10.79 L 76.73 18.22 L 75.5 14.5 L 71.78 13.27 Z" fill-opacity="0.2" fill="#000000" stroke="#000000" stroke-opacity="0.2" stroke-miterlimit="10" pointer-events="none"/><path d="M 20 70 L 73.96 52.01" fill="none" stroke="#000000" stroke-opacity="0.2" stroke-miterlimit="10" pointer-events="none"/><path d="M 78.94 50.35 L 73.41 55.89 L 73.96 52.01 L 71.19 49.25 Z" fill-opacity="0.2" fill="#000000" stroke="#000000" stroke-opacity="0.2" stroke-miterlimit="10" pointer-events="none"/><path d="M 20 70 L 73.96 87.99" fill="none" stroke="#000000" stroke-opacity="0.2" stroke-miterlimit="10" pointer-events="none"/><path d="M 78.94 89.65 L 71.19 90.75 L 73.96 87.99 L 73.41 84.11 Z" fill-opacity="0.2" fill="#000000" stroke="#000000" stroke-opacity="0.2" stroke-miterlimit="10" pointer-events="none"/><path d="M 20 70 L 75.5 125.5" fill="none" stroke="#000000" stroke-opacity="0.2" stroke-miterlimit="10" pointer-events="none"/><path d="M 79.21 129.21 L 71.78 126.73 L 75.5 125.5 L 76.73 121.78 Z" fill-opacity="0.2" fill="#000000" stroke="#000000" stroke-opacity="0.2" stroke-miterlimit="10" pointer-events="none"/><path d="M 20 70 L 76.72 164.54" fill="none" stroke="#000000" stroke-opacity="0.2" stroke-miterlimit="10" pointer-events="none"/><path d="M 79.42 169.04 L 72.82 164.84 L 76.72 164.54 L 78.82 161.24 Z" fill-opacity="0.2" fill="#000000" stroke="#000000" stroke-opacity="0.2" stroke-miterlimit="10" pointer-events="none"/><path d="M 20 70 L 77.49 204.15" fill="none" stroke="#000000" stroke-opacity="0.2" stroke-miterlimit="10" pointer-events="none"/><path d="M 79.56 208.97 L 73.59 203.92 L 77.49 204.15 L 80.02 201.16 Z" fill-opacity="0.2" fill="#000000" stroke="#000000" stroke-opacity="0.2" stroke-miterlimit="10" pointer-events="none"/><ellipse cx="10" cy="70" rx="10" ry="10" fill="#dae8fc" stroke="#6c8ebf" pointer-events="none"/><path d="M 20 110 L 76.72 15.46" fill="none" stroke="#000000" stroke-opacity="0.2" stroke-miterlimit="10" pointer-events="none"/><path d="M 79.42 10.96 L 78.82 18.76 L 76.72 15.46 L 72.82 15.16 Z" fill-opacity="0.2" fill="#000000" stroke="#000000" stroke-opacity="0.2" stroke-miterlimit="10" pointer-events="none"/><path d="M 20 110 L 75.5 54.5" fill="none" stroke="#000000" stroke-opacity="0.2" stroke-miterlimit="10" pointer-events="none"/><path d="M 79.21 50.79 L 76.73 58.22 L 75.5 54.5 L 71.78 53.27 Z" fill-opacity="0.2" fill="#000000" stroke="#000000" stroke-opacity="0.2" stroke-miterlimit="10" pointer-events="none"/><path d="M 20 110 L 73.96 127.99" fill="none" stroke="#000000" stroke-opacity="0.2" stroke-miterlimit="10" pointer-events="none"/><path d="M 78.94 129.65 L 71.19 130.75 L 73.96 127.99 L 73.41 124.11 Z" fill-opacity="0.2" fill="#000000" stroke="#000000" stroke-opacity="0.2" stroke-miterlimit="10" pointer-events="none"/><path d="M 20 110 L 75.5 165.5" fill="none" stroke="#000000" stroke-opacity="0.2" stroke-miterlimit="10" pointer-events="none"/><path d="M 79.21 169.21 L 71.78 166.73 L 75.5 165.5 L 76.73 161.78 Z" fill-opacity="0.2" fill="#000000" stroke="#000000" stroke-opacity="0.2" stroke-miterlimit="10" pointer-events="none"/><path d="M 20 110 L 76.72 204.54" fill="none" stroke="#000000" stroke-opacity="0.2" stroke-miterlimit="10" pointer-events="none"/><path d="M 79.42 209.04 L 72.82 204.84 L 76.72 204.54 L 78.82 201.24 Z" fill-opacity="0.2" fill="#000000" stroke="#000000" stroke-opacity="0.2" stroke-miterlimit="10" pointer-events="none"/><path d="M 20 110 L 73.96 92.01" fill="none" stroke="#000000" stroke-opacity="0.2" stroke-miterlimit="10" pointer-events="none"/><path d="M 78.94 90.35 L 73.41 95.89 L 73.96 92.01 L 71.19 89.25 Z" fill-opacity="0.2" fill="#000000" stroke="#000000" stroke-opacity="0.2" stroke-miterlimit="10" pointer-events="none"/><ellipse cx="10" cy="110" rx="10" ry="10" fill="#dae8fc" stroke="#6c8ebf" pointer-events="none"/><path d="M 20 150 L 77.49 15.85" fill="none" stroke="#000000" stroke-opacity="0.2" stroke-miterlimit="10" pointer-events="none"/><path d="M 79.56 11.03 L 80.02 18.84 L 77.49 15.85 L 73.59 16.08 Z" fill-opacity="0.2" fill="#000000" stroke="#000000" stroke-opacity="0.2" stroke-miterlimit="10" pointer-events="none"/><path d="M 20 150 L 76.72 55.46" fill="none" stroke="#000000" stroke-opacity="0.2" stroke-miterlimit="10" pointer-events="none"/><path d="M 79.42 50.96 L 78.82 58.76 L 76.72 55.46 L 72.82 55.16 Z" fill-opacity="0.2" fill="#000000" stroke="#000000" stroke-opacity="0.2" stroke-miterlimit="10" pointer-events="none"/><path d="M 20 150 L 75.5 94.5" fill="none" stroke="#000000" stroke-opacity="0.2" stroke-miterlimit="10" pointer-events="none"/><path d="M 79.21 90.79 L 76.73 98.22 L 75.5 94.5 L 71.78 93.27 Z" fill-opacity="0.2" fill="#000000" stroke="#000000" stroke-opacity="0.2" stroke-miterlimit="10" pointer-events="none"/><path d="M 20 150 L 73.96 132.01" fill="none" stroke="#000000" stroke-opacity="0.2" stroke-miterlimit="10" pointer-events="none"/><path d="M 78.94 130.35 L 73.41 135.89 L 73.96 132.01 L 71.19 129.25 Z" fill-opacity="0.2" fill="#000000" stroke="#000000" stroke-opacity="0.2" stroke-miterlimit="10" pointer-events="none"/><path d="M 20 150 L 73.96 167.99" fill="none" stroke="#000000" stroke-opacity="0.2" stroke-miterlimit="10" pointer-events="none"/><path d="M 78.94 169.65 L 71.19 170.75 L 73.96 167.99 L 73.41 164.11 Z" fill-opacity="0.2" fill="#000000" stroke="#000000" stroke-opacity="0.2" stroke-miterlimit="10" pointer-events="none"/><path d="M 20 150 L 75.5 205.5" fill="none" stroke="#000000" stroke-opacity="0.2" stroke-miterlimit="10" pointer-events="none"/><path d="M 79.21 209.21 L 71.78 206.73 L 75.5 205.5 L 76.73 201.78 Z" fill-opacity="0.2" fill="#000000" stroke="#000000" stroke-opacity="0.2" stroke-miterlimit="10" pointer-events="none"/><ellipse cx="10" cy="150" rx="10" ry="10" fill="#dae8fc" stroke="#6c8ebf" pointer-events="none"/><path d="M 100 50 L 154.7 13.53" fill="none" stroke="#000000" stroke-opacity="0.2" stroke-miterlimit="10" pointer-events="none"/><path d="M 159.07 10.62 L 155.19 17.42 L 154.7 13.53 L 151.3 11.59 Z" fill-opacity="0.2" fill="#000000" stroke="#000000" stroke-opacity="0.2" stroke-miterlimit="10" pointer-events="none"/><path d="M 100 50 L 153.63 50" fill="none" stroke="#000000" stroke-opacity="0.2" stroke-miterlimit="10" pointer-events="none"/><path d="M 158.88 50 L 151.88 53.5 L 153.63 50 L 151.88 46.5 Z" fill-opacity="0.2" fill="#000000" stroke="#000000" stroke-opacity="0.2" stroke-miterlimit="10" pointer-events="none"/><path d="M 100 50 L 154.7 86.47" fill="none" stroke="#000000" stroke-opacity="0.2" stroke-miterlimit="10" pointer-events="none"/><path d="M 159.07 89.38 L 151.3 88.41 L 154.7 86.47 L 155.19 82.58 Z" fill-opacity="0.2" fill="#000000" stroke="#000000" stroke-opacity="0.2" stroke-miterlimit="10" pointer-events="none"/><path d="M 100 50 L 156.18 124.91" fill="none" stroke="#000000" stroke-opacity="0.2" stroke-miterlimit="10" pointer-events="none"/><path d="M 159.33 129.11 L 152.33 125.61 L 156.18 124.91 L 157.93 121.41 Z" fill-opacity="0.2" fill="#000000" stroke="#000000" stroke-opacity="0.2" stroke-miterlimit="10" pointer-events="none"/><path d="M 100 50 L 157.15 164.3" fill="none" stroke="#000000" stroke-opacity="0.2" stroke-miterlimit="10" pointer-events="none"/><path d="M 159.5 169 L 153.24 164.3 L 157.15 164.3 L 159.5 161.17 Z" fill-opacity="0.2" fill="#000000" stroke="#000000" stroke-opacity="0.2" stroke-miterlimit="10" pointer-events="none"/><path d="M 100 50 L 157.76 204.04" fill="none" stroke="#000000" stroke-opacity="0.2" stroke-miterlimit="10" pointer-events="none"/><path d="M 159.61 208.95 L 153.87 203.63 L 157.76 204.04 L 160.43 201.17 Z" fill-opacity="0.2" fill="#000000" stroke="#000000" stroke-opacity="0.2" stroke-miterlimit="10" pointer-events="none"/><ellipse cx="90" cy="50" rx="10" ry="10" fill="#fff2cc" stroke="#d6b656" pointer-events="none"/><path d="M 100 90 L 156.18 15.09" fill="none" stroke="#000000" stroke-opacity="0.2" stroke-miterlimit="10" pointer-events="none"/><path d="M 159.33 10.89 L 157.93 18.59 L 156.18 15.09 L 152.33 14.39 Z" fill-opacity="0.2" fill="#000000" stroke="#000000" stroke-opacity="0.2" stroke-miterlimit="10" pointer-events="none"/><path d="M 100 90 L 154.7 53.53" fill="none" stroke="#000000" stroke-opacity="0.2" stroke-miterlimit="10" pointer-events="none"/><path d="M 159.07 50.62 L 155.19 57.42 L 154.7 53.53 L 151.3 51.59 Z" fill-opacity="0.2" fill="#000000" stroke="#000000" stroke-opacity="0.2" stroke-miterlimit="10" pointer-events="none"/><path d="M 100 90 L 153.63 90" fill="none" stroke="#000000" stroke-opacity="0.2" stroke-miterlimit="10" pointer-events="none"/><path d="M 158.88 90 L 151.88 93.5 L 153.63 90 L 151.88 86.5 Z" fill-opacity="0.2" fill="#000000" stroke="#000000" stroke-opacity="0.2" stroke-miterlimit="10" pointer-events="none"/><path d="M 100 90 L 154.7 126.47" fill="none" stroke="#000000" stroke-opacity="0.2" stroke-miterlimit="10" pointer-events="none"/><path d="M 159.07 129.38 L 151.3 128.41 L 154.7 126.47 L 155.19 122.58 Z" fill-opacity="0.2" fill="#000000" stroke="#000000" stroke-opacity="0.2" stroke-miterlimit="10" pointer-events="none"/><path d="M 100 90 L 156.18 164.91" fill="none" stroke="#000000" stroke-opacity="0.2" stroke-miterlimit="10" pointer-events="none"/><path d="M 159.33 169.11 L 152.33 165.61 L 156.18 164.91 L 157.93 161.41 Z" fill-opacity="0.2" fill="#000000" stroke="#000000" stroke-opacity="0.2" stroke-miterlimit="10" pointer-events="none"/><path d="M 100 90 L 157.15 204.3" fill="none" stroke="#000000" stroke-opacity="0.2" stroke-miterlimit="10" pointer-events="none"/><path d="M 159.5 209 L 153.24 204.3 L 157.15 204.3 L 159.5 201.17 Z" fill-opacity="0.2" fill="#000000" stroke="#000000" stroke-opacity="0.2" stroke-miterlimit="10" pointer-events="none"/><ellipse cx="90" cy="90" rx="10" ry="10" fill="#fff2cc" stroke="#d6b656" pointer-events="none"/><path d="M 100 130 L 157.15 15.7" fill="none" stroke="#000000" stroke-opacity="0.2" stroke-miterlimit="10" pointer-events="none"/><path d="M 159.5 11 L 159.5 18.83 L 157.15 15.7 L 153.24 15.7 Z" fill-opacity="0.2" fill="#000000" stroke="#000000" stroke-opacity="0.2" stroke-miterlimit="10" pointer-events="none"/><path d="M 100 130 L 156.18 55.09" fill="none" stroke="#000000" stroke-opacity="0.2" stroke-miterlimit="10" pointer-events="none"/><path d="M 159.33 50.89 L 157.93 58.59 L 156.18 55.09 L 152.33 54.39 Z" fill-opacity="0.2" fill="#000000" stroke="#000000" stroke-opacity="0.2" stroke-miterlimit="10" pointer-events="none"/><path d="M 100 130 L 154.7 93.53" fill="none" stroke="#000000" stroke-opacity="0.2" stroke-miterlimit="10" pointer-events="none"/><path d="M 159.07 90.62 L 155.19 97.42 L 154.7 93.53 L 151.3 91.59 Z" fill-opacity="0.2" fill="#000000" stroke="#000000" stroke-opacity="0.2" stroke-miterlimit="10" pointer-events="none"/><path d="M 100 130 L 153.63 130" fill="none" stroke="#000000" stroke-opacity="0.2" stroke-miterlimit="10" pointer-events="none"/><path d="M 158.88 130 L 151.88 133.5 L 153.63 130 L 151.88 126.5 Z" fill-opacity="0.2" fill="#000000" stroke="#000000" stroke-opacity="0.2" stroke-miterlimit="10" pointer-events="none"/><path d="M 100 130 L 154.7 166.47" fill="none" stroke="#000000" stroke-opacity="0.2" stroke-miterlimit="10" pointer-events="none"/><path d="M 159.07 169.38 L 151.3 168.41 L 154.7 166.47 L 155.19 162.58 Z" fill-opacity="0.2" fill="#000000" stroke="#000000" stroke-opacity="0.2" stroke-miterlimit="10" pointer-events="none"/><path d="M 100 130 L 156.18 204.91" fill="none" stroke="#000000" stroke-opacity="0.2" stroke-miterlimit="10" pointer-events="none"/><path d="M 159.33 209.11 L 152.33 205.61 L 156.18 204.91 L 157.93 201.41 Z" fill-opacity="0.2" fill="#000000" stroke="#000000" stroke-opacity="0.2" stroke-miterlimit="10" pointer-events="none"/><ellipse cx="90" cy="130" rx="10" ry="10" fill="#fff2cc" stroke="#d6b656" pointer-events="none"/><path d="M 100 170 L 157.76 15.96" fill="none" stroke="#000000" stroke-opacity="0.2" stroke-miterlimit="10" pointer-events="none"/><path d="M 159.61 11.05 L 160.43 18.83 L 157.76 15.96 L 153.87 16.37 Z" fill-opacity="0.2" fill="#000000" stroke="#000000" stroke-opacity="0.2" stroke-miterlimit="10" pointer-events="none"/><path d="M 100 170 L 157.15 55.7" fill="none" stroke="#000000" stroke-opacity="0.2" stroke-miterlimit="10" pointer-events="none"/><path d="M 159.5 51 L 159.5 58.83 L 157.15 55.7 L 153.24 55.7 Z" fill-opacity="0.2" fill="#000000" stroke="#000000" stroke-opacity="0.2" stroke-miterlimit="10" pointer-events="none"/><path d="M 100 170 L 156.18 95.09" fill="none" stroke="#000000" stroke-opacity="0.2" stroke-miterlimit="10" pointer-events="none"/><path d="M 159.33 90.89 L 157.93 98.59 L 156.18 95.09 L 152.33 94.39 Z" fill-opacity="0.2" fill="#000000" stroke="#000000" stroke-opacity="0.2" stroke-miterlimit="10" pointer-events="none"/><path d="M 100 170 L 154.7 133.53" fill="none" stroke="#000000" stroke-opacity="0.2" stroke-miterlimit="10" pointer-events="none"/><path d="M 159.07 130.62 L 155.19 137.42 L 154.7 133.53 L 151.3 131.59 Z" fill-opacity="0.2" fill="#000000" stroke="#000000" stroke-opacity="0.2" stroke-miterlimit="10" pointer-events="none"/><path d="M 100 170 L 153.63 170" fill="none" stroke="#000000" stroke-opacity="0.2" stroke-miterlimit="10" pointer-events="none"/><path d="M 158.88 170 L 151.88 173.5 L 153.63 170 L 151.88 166.5 Z" fill-opacity="0.2" fill="#000000" stroke="#000000" stroke-opacity="0.2" stroke-miterlimit="10" pointer-events="none"/><path d="M 100 170 L 154.7 206.47" fill="none" stroke="#000000" stroke-opacity="0.2" stroke-miterlimit="10" pointer-events="none"/><path d="M 159.07 209.38 L 151.3 208.41 L 154.7 206.47 L 155.19 202.58 Z" fill-opacity="0.2" fill="#000000" stroke="#000000" stroke-opacity="0.2" stroke-miterlimit="10" pointer-events="none"/><ellipse cx="90" cy="170" rx="10" ry="10" fill="#fff2cc" stroke="#d6b656" pointer-events="none"/><path d="M 180 50 L 233.63 50" fill="none" stroke="#000000" stroke-opacity="0.2" stroke-miterlimit="10" pointer-events="none"/><path d="M 238.88 50 L 231.88 53.5 L 233.63 50 L 231.88 46.5 Z" fill-opacity="0.2" fill="#000000" stroke="#000000" stroke-opacity="0.2" stroke-miterlimit="10" pointer-events="none"/><path d="M 180 50 L 234.7 86.47" fill="none" stroke="#000000" stroke-opacity="0.2" stroke-miterlimit="10" pointer-events="none"/><path d="M 239.07 89.38 L 231.3 88.41 L 234.7 86.47 L 235.19 82.58 Z" fill-opacity="0.2" fill="#000000" stroke="#000000" stroke-opacity="0.2" stroke-miterlimit="10" pointer-events="none"/><path d="M 180 50 L 236.18 124.91" fill="none" stroke="#000000" stroke-opacity="0.2" stroke-miterlimit="10" pointer-events="none"/><path d="M 239.33 129.11 L 232.33 125.61 L 236.18 124.91 L 237.93 121.41 Z" fill-opacity="0.2" fill="#000000" stroke="#000000" stroke-opacity="0.2" stroke-miterlimit="10" pointer-events="none"/><path d="M 180 50 L 237.15 164.3" fill="none" stroke="#000000" stroke-opacity="0.2" stroke-miterlimit="10" pointer-events="none"/><path d="M 239.5 169 L 233.24 164.3 L 237.15 164.3 L 239.5 161.17 Z" fill-opacity="0.2" fill="#000000" stroke="#000000" stroke-opacity="0.2" stroke-miterlimit="10" pointer-events="none"/><ellipse cx="170" cy="50" rx="10" ry="10" fill="#fff2cc" stroke="#d6b656" pointer-events="none"/><path d="M 180 90 L 234.7 53.53" fill="none" stroke="#000000" stroke-opacity="0.2" stroke-miterlimit="10" pointer-events="none"/><path d="M 239.07 50.62 L 235.19 57.42 L 234.7 53.53 L 231.3 51.59 Z" fill-opacity="0.2" fill="#000000" stroke="#000000" stroke-opacity="0.2" stroke-miterlimit="10" pointer-events="none"/><path d="M 180 90 L 233.63 90" fill="none" stroke="#000000" stroke-opacity="0.2" stroke-miterlimit="10" pointer-events="none"/><path d="M 238.88 90 L 231.88 93.5 L 233.63 90 L 231.88 86.5 Z" fill-opacity="0.2" fill="#000000" stroke="#000000" stroke-opacity="0.2" stroke-miterlimit="10" pointer-events="none"/><path d="M 180 90 L 234.7 126.47" fill="none" stroke="#000000" stroke-opacity="0.2" stroke-miterlimit="10" pointer-events="none"/><path d="M 239.07 129.38 L 231.3 128.41 L 234.7 126.47 L 235.19 122.58 Z" fill-opacity="0.2" fill="#000000" stroke="#000000" stroke-opacity="0.2" stroke-miterlimit="10" pointer-events="none"/><path d="M 180 90 L 236.18 164.91" fill="none" stroke="#000000" stroke-opacity="0.2" stroke-miterlimit="10" pointer-events="none"/><path d="M 239.33 169.11 L 232.33 165.61 L 236.18 164.91 L 237.93 161.41 Z" fill-opacity="0.2" fill="#000000" stroke="#000000" stroke-opacity="0.2" stroke-miterlimit="10" pointer-events="none"/><ellipse cx="170" cy="90" rx="10" ry="10" fill="#fff2cc" stroke="#d6b656" pointer-events="none"/><path d="M 180 130 L 236.18 55.09" fill="none" stroke="#000000" stroke-opacity="0.2" stroke-miterlimit="10" pointer-events="none"/><path d="M 239.33 50.89 L 237.93 58.59 L 236.18 55.09 L 232.33 54.39 Z" fill-opacity="0.2" fill="#000000" stroke="#000000" stroke-opacity="0.2" stroke-miterlimit="10" pointer-events="none"/><path d="M 180 130 L 234.7 93.53" fill="none" stroke="#000000" stroke-opacity="0.2" stroke-miterlimit="10" pointer-events="none"/><path d="M 239.07 90.62 L 235.19 97.42 L 234.7 93.53 L 231.3 91.59 Z" fill-opacity="0.2" fill="#000000" stroke="#000000" stroke-opacity="0.2" stroke-miterlimit="10" pointer-events="none"/><path d="M 180 130 L 233.63 130" fill="none" stroke="#000000" stroke-opacity="0.2" stroke-miterlimit="10" pointer-events="none"/><path d="M 238.88 130 L 231.88 133.5 L 233.63 130 L 231.88 126.5 Z" fill-opacity="0.2" fill="#000000" stroke="#000000" stroke-opacity="0.2" stroke-miterlimit="10" pointer-events="none"/><path d="M 180 130 L 234.7 166.47" fill="none" stroke="#000000" stroke-opacity="0.2" stroke-miterlimit="10" pointer-events="none"/><path d="M 239.07 169.38 L 231.3 168.41 L 234.7 166.47 L 235.19 162.58 Z" fill-opacity="0.2" fill="#000000" stroke="#000000" stroke-opacity="0.2" stroke-miterlimit="10" pointer-events="none"/><ellipse cx="170" cy="130" rx="10" ry="10" fill="#fff2cc" stroke="#d6b656" pointer-events="none"/><path d="M 180 170 L 237.15 55.7" fill="none" stroke="#000000" stroke-opacity="0.2" stroke-miterlimit="10" pointer-events="none"/><path d="M 239.5 51 L 239.5 58.83 L 237.15 55.7 L 233.24 55.7 Z" fill-opacity="0.2" fill="#000000" stroke="#000000" stroke-opacity="0.2" stroke-miterlimit="10" pointer-events="none"/><path d="M 180 170 L 236.18 95.09" fill="none" stroke="#000000" stroke-opacity="0.2" stroke-miterlimit="10" pointer-events="none"/><path d="M 239.33 90.89 L 237.93 98.59 L 236.18 95.09 L 232.33 94.39 Z" fill-opacity="0.2" fill="#000000" stroke="#000000" stroke-opacity="0.2" stroke-miterlimit="10" pointer-events="none"/><path d="M 180 170 L 234.7 133.53" fill="none" stroke="#000000" stroke-opacity="0.2" stroke-miterlimit="10" pointer-events="none"/><path d="M 239.07 130.62 L 235.19 137.42 L 234.7 133.53 L 231.3 131.59 Z" fill-opacity="0.2" fill="#000000" stroke="#000000" stroke-opacity="0.2" stroke-miterlimit="10" pointer-events="none"/><path d="M 180 170 L 233.63 170" fill="none" stroke="#000000" stroke-opacity="0.2" stroke-miterlimit="10" pointer-events="none"/><path d="M 238.88 170 L 231.88 173.5 L 233.63 170 L 231.88 166.5 Z" fill-opacity="0.2" fill="#000000" stroke="#000000" stroke-opacity="0.2" stroke-miterlimit="10" pointer-events="none"/><ellipse cx="170" cy="170" rx="10" ry="10" fill="#fff2cc" stroke="#d6b656" pointer-events="none"/><path d="M 100 10 L 153.63 10" fill="none" stroke="#000000" stroke-opacity="0.2" stroke-miterlimit="10" pointer-events="none"/><path d="M 158.88 10 L 151.88 13.5 L 153.63 10 L 151.88 6.5 Z" fill-opacity="0.2" fill="#000000" stroke="#000000" stroke-opacity="0.2" stroke-miterlimit="10" pointer-events="none"/><path d="M 100 10 L 154.7 46.47" fill="none" stroke="#000000" stroke-opacity="0.2" stroke-miterlimit="10" pointer-events="none"/><path d="M 159.07 49.38 L 151.3 48.41 L 154.7 46.47 L 155.19 42.58 Z" fill-opacity="0.2" fill="#000000" stroke="#000000" stroke-opacity="0.2" stroke-miterlimit="10" pointer-events="none"/><path d="M 100 10 L 156.18 84.91" fill="none" stroke="#000000" stroke-opacity="0.2" stroke-miterlimit="10" pointer-events="none"/><path d="M 159.33 89.11 L 152.33 85.61 L 156.18 84.91 L 157.93 81.41 Z" fill-opacity="0.2" fill="#000000" stroke="#000000" stroke-opacity="0.2" stroke-miterlimit="10" pointer-events="none"/><path d="M 100 10 L 157.15 124.3" fill="none" stroke="#000000" stroke-opacity="0.2" stroke-miterlimit="10" pointer-events="none"/><path d="M 159.5 129 L 153.24 124.3 L 157.15 124.3 L 159.5 121.17 Z" fill-opacity="0.2" fill="#000000" stroke="#000000" stroke-opacity="0.2" stroke-miterlimit="10" pointer-events="none"/><path d="M 100 10 L 157.76 164.04" fill="none" stroke="#000000" stroke-opacity="0.2" stroke-miterlimit="10" pointer-events="none"/><path d="M 159.61 168.95 L 153.87 163.63 L 157.76 164.04 L 160.43 161.17 Z" fill-opacity="0.2" fill="#000000" stroke="#000000" stroke-opacity="0.2" stroke-miterlimit="10" pointer-events="none"/><path d="M 100 10 L 158.17 203.9" fill="none" stroke="#000000" stroke-opacity="0.2" stroke-miterlimit="10" pointer-events="none"/><path d="M 159.68 208.93 L 154.31 203.23 L 158.17 203.9 L 161.02 201.22 Z" fill-opacity="0.2" fill="#000000" stroke="#000000" stroke-opacity="0.2" stroke-miterlimit="10" pointer-events="none"/><ellipse cx="90" cy="10" rx="10" ry="10" fill="#fff2cc" stroke="#d6b656" pointer-events="none"/><path d="M 100 210 L 153.63 210" fill="none" stroke="#000000" stroke-opacity="0.2" stroke-miterlimit="10" pointer-events="none"/><path d="M 158.88 210 L 151.88 213.5 L 153.63 210 L 151.88 206.5 Z" fill-opacity="0.2" fill="#000000" stroke="#000000" stroke-opacity="0.2" stroke-miterlimit="10" pointer-events="none"/><path d="M 100 210 L 154.7 173.53" fill="none" stroke="#000000" stroke-opacity="0.2" stroke-miterlimit="10" pointer-events="none"/><path d="M 159.07 170.62 L 155.19 177.42 L 154.7 173.53 L 151.3 171.59 Z" fill-opacity="0.2" fill="#000000" stroke="#000000" stroke-opacity="0.2" stroke-miterlimit="10" pointer-events="none"/><path d="M 100 210 L 156.18 135.09" fill="none" stroke="#000000" stroke-opacity="0.2" stroke-miterlimit="10" pointer-events="none"/><path d="M 159.33 130.89 L 157.93 138.59 L 156.18 135.09 L 152.33 134.39 Z" fill-opacity="0.2" fill="#000000" stroke="#000000" stroke-opacity="0.2" stroke-miterlimit="10" pointer-events="none"/><path d="M 100 210 L 157.15 95.7" fill="none" stroke="#000000" stroke-opacity="0.2" stroke-miterlimit="10" pointer-events="none"/><path d="M 159.5 91 L 159.5 98.83 L 157.15 95.7 L 153.24 95.7 Z" fill-opacity="0.2" fill="#000000" stroke="#000000" stroke-opacity="0.2" stroke-miterlimit="10" pointer-events="none"/><path d="M 100 210 L 157.76 55.96" fill="none" stroke="#000000" stroke-opacity="0.2" stroke-miterlimit="10" pointer-events="none"/><path d="M 159.61 51.05 L 160.43 58.83 L 157.76 55.96 L 153.87 56.37 Z" fill-opacity="0.2" fill="#000000" stroke="#000000" stroke-opacity="0.2" stroke-miterlimit="10" pointer-events="none"/><path d="M 100 210 L 158.17 16.1" fill="none" stroke="#000000" stroke-opacity="0.2" stroke-miterlimit="10" pointer-events="none"/><path d="M 159.68 11.07 L 161.02 18.78 L 158.17 16.1 L 154.31 16.77 Z" fill-opacity="0.2" fill="#000000" stroke="#000000" stroke-opacity="0.2" stroke-miterlimit="10" pointer-events="none"/><ellipse cx="90" cy="210" rx="10" ry="10" fill="#fff2cc" stroke="#d6b656" pointer-events="none"/><ellipse cx="250" cy="50" rx="10" ry="10" fill="#d5e8d4" stroke="#82b366" pointer-events="none"/><ellipse cx="250" cy="90" rx="10" ry="10" fill="#d5e8d4" stroke="#82b366" pointer-events="none"/><ellipse cx="250" cy="130" rx="10" ry="10" fill="#d5e8d4" stroke="#82b366" pointer-events="none"/><ellipse cx="250" cy="170" rx="10" ry="10" fill="#d5e8d4" stroke="#82b366" pointer-events="none"/><path d="M 180 10 L 234.7 46.47" fill="none" stroke="#000000" stroke-opacity="0.2" stroke-miterlimit="10" pointer-events="none"/><path d="M 239.07 49.38 L 231.3 48.41 L 234.7 46.47 L 235.19 42.58 Z" fill-opacity="0.2" fill="#000000" stroke="#000000" stroke-opacity="0.2" stroke-miterlimit="10" pointer-events="none"/><path d="M 180 10 L 236.18 84.91" fill="none" stroke="#000000" stroke-opacity="0.2" stroke-miterlimit="10" pointer-events="none"/><path d="M 239.33 89.11 L 232.33 85.61 L 236.18 84.91 L 237.93 81.41 Z" fill-opacity="0.2" fill="#000000" stroke="#000000" stroke-opacity="0.2" stroke-miterlimit="10" pointer-events="none"/><path d="M 180 10 L 237.15 124.3" fill="none" stroke="#000000" stroke-opacity="0.2" stroke-miterlimit="10" pointer-events="none"/><path d="M 239.5 129 L 233.24 124.3 L 237.15 124.3 L 239.5 121.17 Z" fill-opacity="0.2" fill="#000000" stroke="#000000" stroke-opacity="0.2" stroke-miterlimit="10" pointer-events="none"/><path d="M 180 10 L 237.76 164.04" fill="none" stroke="#000000" stroke-opacity="0.2" stroke-miterlimit="10" pointer-events="none"/><path d="M 239.61 168.95 L 233.87 163.63 L 237.76 164.04 L 240.43 161.17 Z" fill-opacity="0.2" fill="#000000" stroke="#000000" stroke-opacity="0.2" stroke-miterlimit="10" pointer-events="none"/><ellipse cx="170" cy="10" rx="10" ry="10" fill="#fff2cc" stroke="#d6b656" pointer-events="none"/><path d="M 180 210 L 237.76 55.96" fill="none" stroke="#000000" stroke-opacity="0.2" stroke-miterlimit="10" pointer-events="none"/><path d="M 239.61 51.05 L 240.43 58.83 L 237.76 55.96 L 233.87 56.37 Z" fill-opacity="0.2" fill="#000000" stroke="#000000" stroke-opacity="0.2" stroke-miterlimit="10" pointer-events="none"/><path d="M 180 210 L 237.15 95.7" fill="none" stroke="#000000" stroke-opacity="0.2" stroke-miterlimit="10" pointer-events="none"/><path d="M 239.5 91 L 239.5 98.83 L 237.15 95.7 L 233.24 95.7 Z" fill-opacity="0.2" fill="#000000" stroke="#000000" stroke-opacity="0.2" stroke-miterlimit="10" pointer-events="none"/><path d="M 180 210 L 238.84 141.82" fill="none" stroke="#000000" stroke-opacity="0.2" stroke-miterlimit="10" pointer-events="none"/><path d="M 242.27 137.85 L 240.35 145.43 L 238.84 141.82 L 235.05 140.86 Z" fill-opacity="0.2" fill="#000000" stroke="#000000" stroke-opacity="0.2" stroke-miterlimit="10" pointer-events="none"/><path d="M 180 210 L 234.7 173.53" fill="none" stroke="#000000" stroke-opacity="0.2" stroke-miterlimit="10" pointer-events="none"/><path d="M 239.07 170.62 L 235.19 177.42 L 234.7 173.53 L 231.3 171.59 Z" fill-opacity="0.2" fill="#000000" stroke="#000000" stroke-opacity="0.2" stroke-miterlimit="10" pointer-events="none"/><ellipse cx="170" cy="210" rx="10" ry="10" fill="#fff2cc" stroke="#d6b656" pointer-events="none"/></g></svg>